<svg width="40" height="48" viewBox="0 0 40 48" fill="none" xmlns="http://www.w3.org/2000/svg">
<mask id="mask0_1245_10291" style="mask-type:luminance" maskUnits="userSpaceOnUse" x="0" y="0" width="40" height="48">
<path d="M36.932 -2.15448e-05L0 1.92236L2.36319 47.3228L39.2952 45.4004L36.932 -2.15448e-05Z" fill="white"/>
</mask>
<g mask="url(#mask0_1245_10291)">
<path fill-rule="evenodd" clip-rule="evenodd" d="M21.2988 25.9386C18.0679 27.4361 15.3743 29.1058 14.193 31.5787C12.0348 36.1151 17.4697 37.281 15.262 42.3424C16.0942 43.692 17.8109 45.887 18.9454 46.4596C20.9304 43.8181 19.9001 41.4349 23.2769 38.9825C26.9753 36.2995 31.3084 38.4026 33.5618 36.5862C34.6346 35.2804 33.8003 35.2252 34.0372 33.7726C34.3227 32.0411 36.7808 32.1733 35.4537 31.3063L34.2912 30.5593C35.3963 29.677 36.1841 29.6075 36.0345 29.4183C35.5488 28.7765 34.1804 26.4468 34.932 26.3824C38.0301 26.1035 40.203 26.3777 35.5299 20.2976C32.2727 14.9718 35.9118 14.8172 33.8186 10.8079C26.5883 -3.02869 9.72316 0.0893058 3.90097 6.3094C-1.92123 12.5295 1.23954 21.1099 4.7447 25.2171C4.27972 23.36 4.4431 20.5021 3.87668 17.6002C3.3854 15.0626 4.02757 12.1953 5.06631 10.235C6.40856 7.69044 9.41593 5.56658 13.2605 4.66529C17.0619 3.77255 20.3113 4.61217 23.1655 6.92599C28.8533 11.5407 29.3702 22.1712 21.2988 25.9386Z" fill="#5956E9"/>
<path fill-rule="evenodd" clip-rule="evenodd" d="M5.7108 26.0651L5.70464 26.0749C5.66104 26.1482 5.63316 26.2297 5.62278 26.3144C5.6124 26.399 5.61973 26.4849 5.64432 26.5666C5.66891 26.6482 5.71022 26.7239 5.76562 26.7888C5.82102 26.8536 5.8893 26.9062 5.96613 26.9433L12.0057 30.1348C12.1583 30.2177 12.337 30.2387 12.5046 30.1934C12.6723 30.148 12.816 30.0399 12.906 29.8913L12.9156 29.8813C12.9588 29.8077 12.9862 29.726 12.9961 29.6413C13.0061 29.5566 12.9984 29.4707 12.9735 29.3891C12.9486 29.3075 12.907 29.232 12.8515 29.1673C12.7959 29.1026 12.7275 29.0501 12.6507 29.0131L6.62032 25.8113C6.46493 25.7282 6.28352 25.7083 6.1138 25.7556C5.94408 25.8028 5.79912 25.9137 5.70905 26.0651" fill="#F79526"/>
<path fill-rule="evenodd" clip-rule="evenodd" d="M5.07977 28.0588L5.0736 28.0686C5.03006 28.1419 5.00223 28.2235 4.99187 28.3081C4.98152 28.3928 4.98887 28.4787 5.01345 28.5603C5.03804 28.642 5.07933 28.7176 5.1347 28.7825C5.19006 28.8473 5.25831 28.8999 5.33509 28.937L10.5506 31.6957C10.7052 31.7782 10.8854 31.7989 11.0546 31.7535C11.2239 31.7082 11.3697 31.6003 11.4624 31.4516L11.4619 31.4422C11.507 31.3695 11.5362 31.2882 11.5477 31.2034C11.5592 31.1187 11.5526 31.0325 11.5284 30.9505C11.5043 30.8685 11.4631 30.7925 11.4075 30.7275C11.3519 30.6626 11.2833 30.6101 11.206 30.5735L5.99036 27.8053C5.83499 27.7223 5.65363 27.7024 5.48394 27.7496C5.31425 27.7968 5.16925 27.9076 5.07907 28.0589" fill="#F79526"/>
<path fill-rule="evenodd" clip-rule="evenodd" d="M4.37972 30.0113L4.37356 30.0211C4.33005 30.0939 4.30198 30.1749 4.29111 30.2591C4.28024 30.3432 4.2868 30.4287 4.31037 30.5102C4.33395 30.5917 4.37403 30.6674 4.42814 30.7328C4.48225 30.7981 4.54922 30.8516 4.62489 30.89L9.17001 33.2963C9.32514 33.3804 9.50689 33.401 9.6769 33.3537C9.84692 33.3064 9.99192 33.1949 10.0813 33.0427L10.0808 33.0333C10.1262 32.9618 10.1559 32.8814 10.1677 32.7975C10.1796 32.7136 10.1735 32.6282 10.1498 32.5468C10.126 32.4655 10.0852 32.3902 10.0301 32.3258C9.97495 32.2615 9.90672 32.2097 9.82997 32.1738L5.28065 29.7678C5.1282 29.6828 4.94863 29.6608 4.78017 29.7063C4.61171 29.7518 4.46765 29.8612 4.37867 30.0113" fill="#F79526"/>
<path fill-rule="evenodd" clip-rule="evenodd" d="M20.2428 7.83566C22.0766 8.75172 23.509 10.3106 24.2671 12.2152C25.0251 14.1197 25.0557 16.2366 24.3529 18.1623C24.3099 18.2784 24.3126 18.4065 24.3606 18.5206C24.4085 18.6348 24.498 18.7264 24.6111 18.777L24.6586 18.7935C24.7183 18.8212 24.7831 18.8359 24.8489 18.8366C24.9147 18.8374 24.9798 18.8241 25.0401 18.7977C25.1004 18.7713 25.1543 18.7324 25.1984 18.6836C25.2425 18.6348 25.2757 18.5772 25.2958 18.5145C26.09 16.3543 26.0597 13.9771 25.2108 11.8377C24.3619 9.69841 22.754 7.94721 20.6947 6.91925C20.6374 6.88803 20.5741 6.86966 20.509 6.86541C20.4439 6.86116 20.3786 6.87113 20.3178 6.89463C20.2549 6.91608 20.1974 6.95089 20.1492 6.99667C20.101 7.04246 20.0633 7.09812 20.0387 7.15985L20.0113 7.20587C19.9672 7.32104 19.9665 7.4483 20.0093 7.56396C20.052 7.67961 20.1354 7.77578 20.2438 7.83456" fill="#F79526"/>
</g>
<mask id="mask1_1245_10291" style="mask-type:luminance" maskUnits="userSpaceOnUse" x="11" y="8" width="9" height="15">
<path d="M18.6818 8.75481L11.3682 9.1355L12.0547 22.3246L19.3683 21.9439L18.6818 8.75481Z" fill="white"/>
</mask>
<g mask="url(#mask1_1245_10291)">
<path d="M15.1135 14.8126C15.6105 14.7563 16.1137 14.8026 16.592 14.9485C17.0703 15.0945 17.5136 15.337 17.8945 15.6612C18.2753 15.9853 18.5857 16.3841 18.8062 16.8329C19.0268 17.2817 19.153 17.7711 19.1769 18.2706C19.1984 18.764 19.1211 19.2568 18.9496 19.72C18.778 20.1831 18.5157 20.6073 18.1779 20.9677C17.8401 21.3281 17.4338 21.6173 16.9827 21.8185C16.5316 22.0196 16.0449 22.1286 15.5511 22.139C15.0607 22.1498 14.5732 22.0605 14.1185 21.8766C13.6638 21.6926 13.2514 21.4179 12.9064 21.0692C12.5615 20.7205 12.2912 20.3051 12.1122 19.8484C11.9332 19.3917 11.8492 18.9034 11.8653 18.4131L13.2593 18.3406C13.7832 20.0004 14.5451 20.6886 15.7135 20.5579C16.2186 20.4931 16.6853 20.2545 17.0336 19.883C17.3819 19.5115 17.59 19.0304 17.6222 18.5222C17.7028 17.3723 16.9355 16.6542 15.1146 16.2159C15.0971 15.8801 15.073 15.5253 15.0633 15.1702C15.0706 15.0496 15.0878 14.9299 15.1149 14.8122" fill="#5956E9"/>
<path d="M18.8144 12.4282L17.3829 12.5028C17.0487 11.3106 16.385 10.4378 15.021 10.5415C13.7288 10.64 13.1995 11.5559 13.0044 12.737L11.6362 12.8082C11.2555 11.0724 12.7655 9.24106 14.7742 8.97007C15.2702 8.91227 15.7728 8.95762 16.2504 9.10327C16.7281 9.24891 17.1705 9.49171 17.5498 9.81643C17.9292 10.1411 18.2374 10.5408 18.455 10.9902C18.6726 11.4397 18.7949 11.9293 18.8144 12.4282Z" fill="#5956E9"/>
</g>
<path d="M17.4923 13.1551L16.1516 13.4724L16.9511 14.5125" stroke="#F79526" stroke-width="0.5"/>
<path d="M18.0683 14.6809L19.4089 14.3635L18.6094 13.3234" stroke="#F79526" stroke-width="0.5"/>
</svg>
