<svg width="98" height="48" viewBox="0 0 98 48" fill="none" xmlns="http://www.w3.org/2000/svg">
<mask id="mask0_217_14521" style="mask-type:luminance" maskUnits="userSpaceOnUse" x="0" y="0" width="40" height="48">
<path d="M36.932 -2.15448e-05L0 1.92236L2.36319 47.3228L39.2952 45.4004L36.932 -2.15448e-05Z" fill="white"/>
</mask>
<g mask="url(#mask0_217_14521)">
<path fill-rule="evenodd" clip-rule="evenodd" d="M21.2988 25.9386C18.0679 27.4361 15.3743 29.1058 14.193 31.5787C12.0348 36.1151 17.4697 37.281 15.262 42.3424C16.0942 43.692 17.8109 45.887 18.9454 46.4596C20.9304 43.8181 19.9001 41.4349 23.2769 38.9825C26.9753 36.2995 31.3084 38.4026 33.5618 36.5862C34.6346 35.2804 33.8003 35.2252 34.0372 33.7726C34.3227 32.0411 36.7808 32.1733 35.4537 31.3063L34.2912 30.5593C35.3963 29.677 36.1841 29.6075 36.0345 29.4183C35.5488 28.7765 34.1804 26.4468 34.932 26.3824C38.0301 26.1035 40.203 26.3777 35.5299 20.2976C32.2727 14.9718 35.9118 14.8172 33.8186 10.8079C26.5883 -3.02869 9.72316 0.0893058 3.90097 6.3094C-1.92123 12.5295 1.23954 21.1099 4.7447 25.2171C4.27972 23.36 4.4431 20.5021 3.87668 17.6002C3.3854 15.0626 4.02757 12.1953 5.06631 10.235C6.40856 7.69044 9.41593 5.56658 13.2605 4.66529C17.0619 3.77255 20.3113 4.61217 23.1655 6.92599C28.8533 11.5407 29.3702 22.1712 21.2988 25.9386Z" fill="url(#paint0_linear_217_14521)"/>
<path fill-rule="evenodd" clip-rule="evenodd" d="M5.7108 26.0651L5.70464 26.0749C5.66104 26.1482 5.63316 26.2297 5.62278 26.3144C5.6124 26.399 5.61973 26.4849 5.64432 26.5666C5.66891 26.6482 5.71022 26.7239 5.76562 26.7888C5.82102 26.8536 5.8893 26.9062 5.96613 26.9433L12.0057 30.1348C12.1583 30.2177 12.337 30.2387 12.5046 30.1934C12.6723 30.148 12.816 30.0399 12.906 29.8913L12.9156 29.8813C12.9588 29.8077 12.9862 29.726 12.9961 29.6413C13.0061 29.5566 12.9984 29.4707 12.9735 29.3891C12.9486 29.3075 12.907 29.232 12.8515 29.1673C12.7959 29.1026 12.7275 29.0501 12.6507 29.0131L6.62032 25.8113C6.46493 25.7282 6.28352 25.7083 6.1138 25.7556C5.94408 25.8028 5.79912 25.9137 5.70905 26.0651" fill="#F79526"/>
<path fill-rule="evenodd" clip-rule="evenodd" d="M5.07928 28.0589L5.07312 28.0688C5.02957 28.1421 5.00174 28.2236 4.99138 28.3083C4.98103 28.3929 4.98838 28.4788 5.01296 28.5604C5.03755 28.6421 5.07884 28.7177 5.13421 28.7826C5.18958 28.8474 5.25782 28.9001 5.33461 28.9371L10.5501 31.6958C10.7047 31.7783 10.8849 31.799 11.0541 31.7537C11.2234 31.7084 11.3692 31.6004 11.4619 31.4517L11.4614 31.4423C11.5065 31.3696 11.5357 31.2883 11.5472 31.2036C11.5587 31.1188 11.5521 31.0326 11.5279 30.9506C11.5038 30.8686 11.4626 30.7926 11.407 30.7277C11.3514 30.6627 11.2828 30.6102 11.2055 30.5736L5.98987 27.8054C5.8345 27.7225 5.65315 27.7025 5.48345 27.7497C5.31376 27.7969 5.16877 27.9077 5.07858 28.059" fill="#F79526"/>
<path fill-rule="evenodd" clip-rule="evenodd" d="M4.37972 30.0114L4.37356 30.0212C4.33005 30.094 4.30198 30.175 4.29111 30.2592C4.28024 30.3433 4.2868 30.4288 4.31037 30.5103C4.33395 30.5918 4.37403 30.6676 4.42814 30.7329C4.48225 30.7983 4.54922 30.8518 4.62489 30.8901L9.17001 33.2964C9.32514 33.3805 9.50689 33.4011 9.6769 33.3538C9.84692 33.3065 9.99192 33.195 10.0813 33.0429L10.0808 33.0334C10.1262 32.9619 10.1559 32.8815 10.1677 32.7976C10.1796 32.7137 10.1735 32.6283 10.1498 32.5469C10.126 32.4656 10.0852 32.3903 10.0301 32.326C9.97495 32.2616 9.90672 32.2098 9.82997 32.1739L5.28065 29.7679C5.1282 29.683 4.94863 29.6609 4.78017 29.7064C4.61171 29.7519 4.46765 29.8613 4.37867 30.0115" fill="#F79526"/>
<path fill-rule="evenodd" clip-rule="evenodd" d="M20.2433 7.83554C22.0771 8.7516 23.5095 10.3105 24.2676 12.2151C25.0256 14.1196 25.0562 16.2365 24.3534 18.1622C24.3104 18.2782 24.3131 18.4063 24.3611 18.5205C24.409 18.6346 24.4985 18.7263 24.6115 18.7769L24.6591 18.7933C24.7187 18.8211 24.7836 18.8358 24.8494 18.8365C24.9152 18.8372 24.9803 18.824 25.0406 18.7976C25.1008 18.7712 25.1548 18.7323 25.1989 18.6835C25.243 18.6347 25.2761 18.577 25.2962 18.5144C26.0904 16.3542 26.0602 13.9769 25.2113 11.8376C24.3624 9.69829 22.7545 7.94709 20.6952 6.91912C20.6379 6.88791 20.5745 6.86954 20.5094 6.86529C20.4443 6.86104 20.3791 6.87101 20.3182 6.89451C20.2553 6.91596 20.1978 6.95077 20.1497 6.99655C20.1015 7.04234 20.0638 7.098 20.0392 7.15973L20.0118 7.20575C19.9677 7.32091 19.967 7.44818 20.0097 7.56383C20.0525 7.67949 20.1359 7.77566 20.2443 7.83443" fill="#F79526"/>
</g>
<mask id="mask1_217_14521" style="mask-type:luminance" maskUnits="userSpaceOnUse" x="11" y="8" width="9" height="15">
<path d="M18.6818 8.75469L11.3682 9.13538L12.0547 22.3245L19.3683 21.9438L18.6818 8.75469Z" fill="white"/>
</mask>
<g mask="url(#mask1_217_14521)">
<path d="M15.1135 14.8126C15.6105 14.7563 16.1137 14.8026 16.592 14.9485C17.0703 15.0945 17.5136 15.337 17.8945 15.6612C18.2753 15.9853 18.5857 16.3841 18.8062 16.8329C19.0268 17.2817 19.153 17.7711 19.1769 18.2706C19.1984 18.764 19.1211 19.2568 18.9496 19.72C18.778 20.1831 18.5157 20.6073 18.1779 20.9677C17.8401 21.3281 17.4338 21.6173 16.9827 21.8185C16.5316 22.0196 16.0449 22.1286 15.5511 22.139C15.0607 22.1498 14.5732 22.0605 14.1185 21.8766C13.6638 21.6926 13.2514 21.4179 12.9064 21.0692C12.5615 20.7205 12.2912 20.3051 12.1122 19.8484C11.9332 19.3917 11.8492 18.9034 11.8653 18.4131L13.2593 18.3406C13.7832 20.0004 14.5451 20.6886 15.7135 20.5579C16.2186 20.4931 16.6853 20.2545 17.0336 19.883C17.3819 19.5115 17.59 19.0304 17.6222 18.5222C17.7028 17.3723 16.9355 16.6542 15.1146 16.2159C15.0971 15.8801 15.073 15.5253 15.0633 15.1702C15.0706 15.0496 15.0878 14.9299 15.1149 14.8122" fill="url(#paint1_linear_217_14521)"/>
<path d="M18.8134 12.4282L17.3819 12.5028C17.0477 11.3106 16.384 10.4378 15.02 10.5415C13.7278 10.64 13.1986 11.5559 13.0034 12.737L11.6353 12.8082C11.2545 11.0724 12.7645 9.24106 14.7732 8.97007C15.2692 8.91227 15.7718 8.95762 16.2495 9.10327C16.7271 9.24891 17.1695 9.49171 17.5489 9.81643C17.9282 10.1411 18.2364 10.5408 18.454 10.9902C18.6716 11.4397 18.794 11.9293 18.8134 12.4282Z" fill="url(#paint2_linear_217_14521)"/>
</g>
<path d="M17.4928 13.1551L16.1521 13.4724L16.9516 14.5125" stroke="#F79526" stroke-width="0.5"/>
<path d="M18.0683 14.681L19.4089 14.3636L18.6094 13.3236" stroke="#F79526" stroke-width="0.5"/>
<mask id="mask2_217_14521" style="mask-type:luminance" maskUnits="userSpaceOnUse" x="40" y="11" width="58" height="34">
<path d="M97.9998 11.067H40.6611V44.678H97.9998V11.067Z" fill="white"/>
</mask>
<g mask="url(#mask2_217_14521)">
<path d="M53.019 35.2503C53.9654 34.4175 54.6609 33.8069 55.5291 33.042C58.7388 36.2598 62.3204 38.5827 66.8015 36.5073C68.2642 35.8294 69.2632 34.0785 70.4742 32.8188L69.8836 32.1731C68.4384 32.3869 66.9932 32.7788 65.5477 32.7774C62.4652 32.7746 60.1903 31.2064 58.8289 28.3608C57.4082 25.3923 57.7128 22.469 59.6645 19.9004C61.6033 17.3482 64.2024 16.4334 67.39 16.9283C69.2625 17.2196 71.2106 16.9812 73.3425 16.9812C73.3425 22.572 73.6538 28.2652 73.2328 33.8998C72.9548 37.6261 69.0052 40.4692 64.8445 40.7819C60.1041 41.1383 56.3269 39.1421 53.0201 35.2507M65.8842 29.3034C68.1478 29.2249 70.1861 27.0219 70.1254 24.7183C70.0871 23.5634 69.6027 22.4683 68.774 21.663C67.9452 20.8578 66.8367 20.405 65.6812 20.3999C65.1077 20.4194 64.5438 20.5525 64.0222 20.7915C63.5005 21.0305 63.0314 21.3706 62.6421 21.7921C62.2528 22.2136 61.9509 22.7082 61.7541 23.2472C61.5572 23.7862 61.4693 24.3589 61.4953 24.9321C61.5521 27.3507 63.5928 29.3837 65.8828 29.3034" fill="url(#paint3_linear_217_14521)"/>
<path d="M40.3197 11.4171H43.8557C43.8557 14.0078 43.8529 16.4972 43.8557 18.9866C43.8648 25.4011 45.6549 27.8011 51.7876 29.505V32.5096C47.7125 33.4588 41.7249 29.1832 40.6961 23.4582C40.4995 22.5136 40.3795 21.5548 40.3372 20.5909C40.2902 17.6122 40.3197 14.6331 40.3197 11.4171Z" fill="url(#paint4_linear_217_14521)"/>
<path d="M79.0516 16.9834V32.6797L76.0098 32.8216V16.9834H79.0516Z" fill="url(#paint5_linear_217_14521)"/>
<path d="M52.2365 27.3374C54.4868 27.3374 56.311 25.4525 56.311 23.1273C56.311 20.8022 54.4868 18.9172 52.2365 18.9172C49.9863 18.9172 48.1621 20.8022 48.1621 23.1273C48.1621 25.4525 49.9863 27.3374 52.2365 27.3374Z" fill="url(#paint6_linear_217_14521)"/>
<path d="M53.8662 23.8063C54.7664 23.8063 55.4962 23.0158 55.4962 22.0407C55.4962 21.0656 54.7664 20.2751 53.8662 20.2751C52.9661 20.2751 52.2363 21.0656 52.2363 22.0407C52.2363 23.0158 52.9661 23.8063 53.8662 23.8063Z" fill="white"/>
<path d="M77.4974 16.4723C78.2476 16.4723 78.8557 15.8035 78.8557 14.9784C78.8557 14.1533 78.2476 13.4845 77.4974 13.4845C76.7473 13.4845 76.1392 14.1533 76.1392 14.9784C76.1392 15.8035 76.7473 16.4723 77.4974 16.4723Z" fill="url(#paint7_linear_217_14521)"/>
<path d="M80.7153 23.3011C80.7153 28.2606 83.958 31.6435 87.9052 31.6435C88.8877 31.6594 89.8605 31.4462 90.7463 31.0208C91.6322 30.5955 92.4068 29.9697 93.0088 29.193V39.1127H96.9843V15.2493H93.0088V17.35C92.4097 16.5993 91.6447 15.9977 90.7739 15.5927C89.903 15.1877 88.9501 14.9902 87.99 15.0159C83.958 15.0159 80.7153 18.3423 80.7153 23.3011ZM93.0088 23.3302C93.0088 26.4519 90.9221 28.0854 88.8639 28.0854C86.8336 28.0854 84.7474 26.4225 84.7474 23.3008C84.7474 20.179 86.834 18.5747 88.8639 18.5747C90.9221 18.5751 93.0088 20.2088 93.0088 23.3302Z" fill="url(#paint8_linear_217_14521)"/>
</g>
<defs>
<linearGradient id="paint0_linear_217_14521" x1="18.4651" y1="0.961218" x2="20.8283" y2="46.3616" gradientUnits="userSpaceOnUse">
<stop stop-color="#1268A9"/>
<stop offset="1" stop-color="#042238"/>
</linearGradient>
<linearGradient id="paint1_linear_217_14521" x1="15.33" y1="14.7946" x2="15.7119" y2="22.1324" gradientUnits="userSpaceOnUse">
<stop stop-color="#1268A9"/>
<stop offset="1" stop-color="#042238"/>
</linearGradient>
<linearGradient id="paint2_linear_217_14521" x1="15.0165" y1="8.94998" x2="15.2077" y2="12.6223" gradientUnits="userSpaceOnUse">
<stop stop-color="#1268A9"/>
<stop offset="1" stop-color="#042238"/>
</linearGradient>
<linearGradient id="paint3_linear_217_14521" x1="63.2362" y1="16.7992" x2="63.2362" y2="40.8226" gradientUnits="userSpaceOnUse">
<stop stop-color="#1268A9"/>
<stop offset="1" stop-color="#042238"/>
</linearGradient>
<linearGradient id="paint4_linear_217_14521" x1="46.0491" y1="11.4171" x2="46.0491" y2="32.6419" gradientUnits="userSpaceOnUse">
<stop stop-color="#1268A9"/>
<stop offset="1" stop-color="#042238"/>
</linearGradient>
<linearGradient id="paint5_linear_217_14521" x1="77.5307" y1="16.9834" x2="77.5307" y2="32.8216" gradientUnits="userSpaceOnUse">
<stop stop-color="#1268A9"/>
<stop offset="1" stop-color="#042238"/>
</linearGradient>
<linearGradient id="paint6_linear_217_14521" x1="52.2365" y1="18.9172" x2="52.2365" y2="27.3374" gradientUnits="userSpaceOnUse">
<stop stop-color="#1A80CC"/>
<stop offset="1" stop-color="#042238"/>
</linearGradient>
<linearGradient id="paint7_linear_217_14521" x1="77.4974" y1="13.4845" x2="77.4974" y2="16.4723" gradientUnits="userSpaceOnUse">
<stop stop-color="#1268A9"/>
<stop offset="1" stop-color="#042238"/>
</linearGradient>
<linearGradient id="paint8_linear_217_14521" x1="88.8498" y1="15.0137" x2="88.8498" y2="39.1127" gradientUnits="userSpaceOnUse">
<stop stop-color="#1268A9"/>
<stop offset="1" stop-color="#093455"/>
</linearGradient>
</defs>
</svg>
